<?xml version="1.0" standalone="no"?><!DOCTYPE svg PUBLIC "-//W3C//DTD SVG 1.1//EN" "http://www.w3.org/Graphics/SVG/1.1/DTD/svg11.dtd"><svg class="icon" height="512" viewBox="0 0 1170 1024" version="1.1" xmlns="http://www.w3.org/2000/svg"><path d="M585.142857 646.285714q0 36.571429-21.142857 60.857143t-52 24.285714H219.428571q-30.857143 0-52-24.285714T146.285714 646.285714t5.142857-67.142857 16.857143-58.857143 34.571429-44.571428 55.428571-16.285715q3.428571 2.285714 17.142857 10.285715t21.428572 12.285714T317.142857 492t24.571429 8.285714 24 2.571429 24-2.571429 24.571428-8.285714 20.285715-10T456 469.714286t17.142857-10.285715q32.571429 0 55.428572 16.285715t34.571428 44.571428 16.857143 58.857143 5.142857 67.142857zM495.428571 349.142857q0 53.714286-38 91.714286T365.714286 478.857143t-91.714286-38T236 349.142857t38-91.714286T365.714286 219.428571t91.714285 38T495.428571 349.142857z m528.571429 254.285714v36.571429q0 8-5.142857 13.142857t-13.142857 5.142857h-329.142857q-8 0-13.142858-5.142857t-5.142857-13.142857v-36.571429q0-8 5.142857-13.142857t13.142858-5.142857h329.142857q8 0 13.142857 5.142857t5.142857 13.142857z m0-144v32q0 8.571429-6 14.571429T1003.428571 512h-324.571428q-8.571429 0-14.571429-6T658.285714 491.428571v-32q0-8.571429 6-14.571428T678.857143 438.857143h324.571428q8.571429 0 14.571429 6T1024 459.428571z m0-148.571428v36.571428q0 8-5.142857 13.142858t-13.142857 5.142857h-329.142857q-8 0-13.142858-5.142857t-5.142857-13.142858v-36.571428q0-8 5.142857-13.142857t13.142858-5.142857h329.142857q8 0 13.142857 5.142857t5.142857 13.142857z m73.142857 548.571428V164.571429q0-7.428571-5.428571-12.857143T1078.857143 146.285714H91.428571q-7.428571 0-12.857142 5.428572T73.142857 164.571429v694.857142q0 7.428571 5.428572 12.857143t12.857142 5.428572h201.142858v-54.857143q0-8 5.142857-13.142857t13.142857-5.142857h36.571428q8 0 13.142858 5.142857t5.142857 13.142857v54.857143h438.857143v-54.857143q0-8 5.142857-13.142857t13.142857-5.142857h36.571428q8 0 13.142858 5.142857t5.142857 13.142857v54.857143h201.142857q7.428571 0 12.857143-5.428572t5.428571-12.857143z m73.142857-694.857142v694.857142q0 37.714286-26.857143 64.571429t-64.571428 26.857143H91.428571q-37.714286 0-64.571428-26.857143T0 859.428571V164.571429q0-37.714286 26.857143-64.571429t64.571428-26.857143h987.428572q37.714286 0 64.571428 26.857143t26.857143 64.571429z" fill="" /></svg>