<?xml version="1.0" standalone="no"?><!DOCTYPE svg PUBLIC "-//W3C//DTD SVG 1.1//EN" "http://www.w3.org/Graphics/SVG/1.1/DTD/svg11.dtd"><svg class="icon" height="512" viewBox="0 0 1025 1024" version="1.1" xmlns="http://www.w3.org/2000/svg"><path d="M913.152 440.16c-10.784-26.208-25.824-79.008-49.216-120.608-6.336-11.232-12.768-20.544-18.976-28.256-7.872 8.256-15.168 15.904-21.312 22.336 11.872 16.224 22.976 35.712 28.704 48.864 4.384 10.08 9.44 24.64 13.408 38.016l48.192 50.976c0 0 3.04 2.048 7.104 6.24 5.184-1.824 10.048-4.576 13.12-4.928 7.616-0.8 8 6.304 23.808 6.304s50.016-4.128 57.024-11.04c7.008-6.912 9.216-9.248 9.216-15.36s-3.616-18.72-10.4-26.208c-6.816-7.488-35.808-11.232-52.832-13.408s-19.392 0-23.808 2.752c-7.008 4.352-7.392 43.936-7.392 43.936l-16.608 0.384zM1024.416 660.864c0-60.48-8-119.616-11.2-126.112-2.4-4.736-17.792-17.152-52.832-40.608-12.32-8.288-20.256-13.28-25.632-16.896 6.816 14.08 11.072 34.016 4.192 60.288 16.288-1.696 30.592-1.856 45.056-1.216 0-0.384 5.408 30.144 0 51.616-5.408 21.28-14.592 20.096-30.624 25.024s-26.624 8.48-32 7.296-14.592-8.48-25.024-8.288c-10.4 0.384-59.04 8.48-77.024 8.48s-26.592-7.488-41.024-11.04c-14.4-3.552-22.4-3.552-22.4-3.552s20.288-19.584 57.92-36.48c-8.608-7.488-13.504-13.856-13.504-13.856l-107.648-118.848c-10.944-0.16-22.048-0.288-33.184-0.416l-52.864 58.432-8 35.232-96.032 67.232-33.6-38.432 59.232-100.864 33.6-8 13.856-14.4c-23.584-0.16-45.216-0.256-63.072-0.256-95.04 0-297.344 2.56-329.76 4.928s-27.616-0.384-30.016-6.304c-2.784-5.92 10.016-49.088 19.616-71.328 9.6-22.08 38.4-66.4 52.416-74.304 3.392-1.952 33.216-11.232 107.84-16.16 54.208-3.584 112.928-5.44 152.544-6.048-4.992-11.488-7.552-22.432-8.832-31.36-45.376 0.576-96 2.624-156.32 8.64-75.04 7.68-85.056 9.856-96.032 13.216s-38.016 17.728-63.616 63.04c-23.424 41.568-38.4 94.4-49.216 120.608l-16.608-0.384c0 0-0.192-39.616-7.392-43.936-4.416-2.752-6.816-5.12-23.808-2.752s-46.016 5.92-52.832 13.408c-6.816 7.488-10.4 20.096-10.4 26.208s2.208 8.672 9.216 15.36c7.008 6.88 41.216 11.04 57.024 11.04s16.192-7.104 23.808-6.304c3.392 0.384 9.216 3.744 14.816 5.504-6.592 15.552-5.6 12.032-41.024 35.872-35.008 23.648-50.624 35.872-52.832 40.608-3.2 6.496-11.2 65.632-11.2 126.112s4.416 114.88 4.416 134.208c0 8.096 0 22.272 1.792 35.872 1.184 8.064 3.008 15.968 6.208 22.08 5.408 10.848 10.4 11.808 31.008 10.848 26.4-1.184 64.64 0 104.064 1.568 26.4 0.992 53.44 1.984 77.44 2.56 60.032 1.184 42.432-8.672 68.032-8.288s126.656 4.544 219.104 4.544c92.448 0 193.696-4.128 219.104-4.544 25.6-0.384 8 9.472 68.032 8.288 24-0.384 51.008-1.568 77.44-2.56 39.424-1.376 77.824-2.752 104.032-1.568 20.608 0.992 25.632 0 31.008-10.848 3.008-6.112 4.992-13.984 6.208-22.08 1.984-13.6 1.792-27.776 1.792-35.872 0.416-19.104 4.8-73.696 4.8-134.208zM205.024 620.256c-18.016 0-66.624-8.096-77.024-8.48s-19.616 6.912-25.024 8.288c-5.408 1.376-16-2.368-32-7.296s-25.408-3.552-30.624-25.024c-5.408-21.28 0-51.84 0-51.84 34.624-1.568 68.032 1.568 130.656 18.912s97.44 50.656 97.44 50.656-8 0.192-22.4 3.744c-14.4 3.552-23.008 11.232-41.024 11.04zM716.672 764.512c-28.608 3.744-148.48 4.736-204.48 4.736s-175.904-1.184-204.512-4.736c-29.216-3.744-67.232-38.24-41.024-65.6 35.424-37.248 28.8-36.064 109.248-46.304 69.632-8.864 122.464-9.248 136.256-9.248 13.6 0 66.624 0.576 136.256 9.248 80.448 10.24 73.824 9.056 109.248 46.304 26.208 27.392-11.808 61.856-41.024 65.6zM43.136 879.584c-20.416 0.992-25.6 0-31.008-10.848-3.008-6.112-4.992-13.984-6.208-22.08 0 4.736 0 10.656-0.192 15.968l0 2.176c0 2.176 0.192 4.128 0.192 5.696l0 0.192c0.192 5.12 0.384 9.472 0.8 12.8 2.592 23.072 5.408 36.64 12.608 40.8 6.016 3.552 12.416 3.552 20 3.552l86.048 0c5.408 0 19.008-0.992 21.6-30.752 0 0 0.416-5.12 0.416-15.968-40.032-1.568-77.824-2.752-104.256-1.568zM1011.808 868.736c-5.408 10.848-10.592 11.84-31.008 10.848-26.432-1.184-64.224 0-104.256 1.568 0 10.848 0.384 15.968 0.384 15.968 2.592 29.76 16.224 30.752 21.6 30.752l86.048 0c7.616 0 14.592 0 20-3.552 7.008-4.544 10.016-17.728 12.608-40.8 0.416-3.36 0.608-7.68 0.8-12.8l0-0.192c0-1.568 0.192-3.552 0.192-5.696l0-2.176c0-5.312 0-11.232-0.192-15.968-1.184 8.064-3.2 15.968-6.208 22.048zM539.232 471.232l-54.304 88.032 20.448 21.888 82.432-58.048 6.4-32.288 67.808-72.448-24.704-26.432-67.872 72.48-30.24 6.816zM865.12 132.992c2.848-3.072 7.52-3.072 10.368 0 2.912 3.072 2.912 8.064 0 11.104l-118.944 127.072 18.56 19.84 118.912-127.072c2.912-3.072 7.552-3.072 10.4 0 2.912 3.04 2.912 8.064 0 11.104l-118.944 127.072 16.672 17.792c0.288-0.288 0.576-0.448 0.864-0.768l12.576-13.44 0 0.032 100.832-107.712c20.128-21.472 20.128-56.288 0-77.76-20.096-21.472-52.736-21.504-72.832 0l-113.44 121.12c-0.256 0.32-0.448 0.672-0.704 0.928l16.64 17.824 119.008-127.104zM575.168 325.568c9.984 1.664 20.096 1.76 30.112 0.352 63.648 68.032 220.8 235.872 220.8 235.872 23.84 25.44 62.592 25.44 86.432 0 11.52-12.32 17.888-28.672 17.888-46.08 0-17.472-6.368-33.856-17.92-46.176l-218.624-233.536c1.696-10.016 2.144-20.256 1.28-30.368-2.112-25.024-12.128-49.472-30.048-68.64-30.816-32.896-76.064-40.864-113.92-23.968l61.184 65.28c9.184 9.856 9.216 25.824-0.032 35.712l-25.536 27.232c-9.184 9.824-24.16 9.856-33.312 0l-59.84-63.904c-13.6 39.456-5.632 85.44 24 117.12 16.256 17.312 36.48 27.616 57.504 31.136zM848.672 493.664c12.448-13.216 32.576-13.248 44.992 0s12.448 34.816 0.032 48.032c-12.448 13.312-32.576 13.312-45.056 0.032-12.384-13.248-12.384-34.816 0.032-48.064z" /></svg>